mtllib materials.mtl
v 0.04812899 -0.2469441 -0.1466381
v 0.04125279 -0.1105057 -0.1167955
v 0.05278884 -0.1304753 -0.1757344
v -0.03187102 -0.2469441 -0.1466381
v -0.02721117 -0.1304753 -0.1757344
v -0.02461578 -0.1105057 -0.1167956
v -0.1306449 -0.1617653 -0.1104274
v 0.04484361 -0.1404753 -0.1957344
v 0.1674588 -0.1639698 -0.1039735
v -0.1300998 -0.05652606 -0.03714266
v -0.06721128 0.1295246 0.04926538
v -0.04721124 0.02452469 -0.02573448
v 0.1627888 -0.06047535 -0.04073429
v 0.05961986 -0.2020158 0.1957344
v -0.02038017 -0.2020156 0.1957344
v -0.06721128 0.2195246 0.1492655
v 0.1427887 0.2195246 0.1492656
v 0.2027886 -0.1604754 0.1792656
v -0.1872114 -0.160475 0.1792654
v -0.3667988 -0.04954731 -0.1007346
v -0.3367988 -0.1895471 -0.07073462
v -0.1872114 -0.1604753 0.1792654
v 0.2027886 -0.1604754 0.1792656
v 0.1127887 0.1295246 0.05926579
v 0.4022911 0.2778869 0.09649241
v 0.05353154 -0.02695704 -0.06356865
v -0.152643 0.01757801 -0.02163666
v 0.3889356 -0.07763124 -0.09073424
v 0.3589356 -0.2176312 -0.07073429
v -0.4022911 0.2869444 0.09913874
v -0.2645449 0.02369845 0.07420206
v -0.333418 0.1553214 0.0866704
v -0.2616162 0.1073071 0.08359295
v 0.1977887 0.004524708 0.1092659
v 0.2489144 0.07286525 0.1060725
v 0.3414523 0.1390073 0.09218574
v 0.3110328 0.06956744 0.09003234
v 0.2806134 0.0001277924 0.087879
v -0.1772112 -0.0004752874 0.07426548
v 0.1894544 0.01845682 -0.01873022
v 0.1577887 -0.03297532 0.001765668
v 0.08278875 0.02452469 -0.02073431
v -0.03354938 -0.02586174 -0.05884838
v -0.1272112 -0.03047526 -0.003234625
v 0.08528875 -0.01422524 0.01551569
v 0.07778876 -0.04047537 -0.004484296
v -0.05221123 -0.01797533 0.005515456
v -0.04721119 -0.04422534 -0.01323456
v -0.03187129 -0.286944 -0.08663818
v 0.04812874 -0.2869443 -0.08663824
v 0.04437807 -0.1104753 -0.1807344
v -0.01985621 -0.1404753 -0.1957344
v -0.02072172 -0.1104752 -0.1807344
v -0.2989814 0.08950996 0.08043623
v -0.3489695 0.1465946 0.08438843
v -0.3218468 0.07283378 0.08164322
v -0.2781058 0.0448947 0.08863503
v -0.312351 0.1195316 0.0898515
v 0.3474848 0.1094655 0.08483684
v 0.3220518 0.04641128 0.08043075
vn 0.9818571 0.008045484 0.1894519
vn -0.9985027 0.04695914 0.02805876
vn -3.311011E-07 -0.3912303 0.9202929
vn 0.9416402 -0.1165665 -0.3157943
vn 0.02276419 0.4133702 -0.9102785
vn -0.3099973 0.5443869 -0.7794515
vn 0.06918564 0.5885377 -0.805504
vn 0.2971864 0.507577 -0.8087311
vn -5.308216E-08 0.1095723 0.9939789
vn 0.8124866 0.4333259 -0.3899927
vn 0.08737568 0.09210471 0.9919084
vn 0.2070887 0.9396552 0.2723279
vn -0.2374956 -0.970478 -0.04205172
vn -0.1525706 -0.2382264 -0.9591509
vn -0.07272375 0.1012963 0.9921947
vn -0.2070874 -0.9396554 -0.272328
vn 0.276188 -0.960838 -0.02259612
vn -0.2365648 0.9286283 0.2858088
vn 0.2365647 -0.9286283 -0.2858088
vn -0.2693707 0.2956556 0.91653
vn 0.1899709 0.2189105 -0.9570733
vn -0.16369 0.2190911 -0.9618756
vn -0.5590992 0.7117748 0.4251881
vn 0.3174207 0.4758956 -0.820224
vn 0.5590991 -0.7117749 -0.425188
vn 0.6545959 0.5994061 0.4606698
vn -0.06941739 0.5710467 -0.8179774
vn -0.6545959 -0.5994056 -0.4606703
vn 0.8332959 -0.1009154 0.5435385
vn -0.08429812 0.9066966 0.4132738
vn -0.852228 -0.0715658 0.5182527
vn 0.1232656 -0.1661796 -0.9783608
vn -0.2770223 -0.9597428 0.04639504
vn 0.1542404 0.9097365 0.3854731
vn 0.2752476 0.296113 0.9146343
vn 0 0 0
vn -0.850781 -0.05937038 0.5221561
vn 0.0313019 0.1104799 -0.9933853
vn 0.08429811 -0.9066966 -0.4132738
vn 0 0 0
vn 0.2342774 -0.2195165 -0.9470621
vn 0 0 0
vn 0.9128618 -0.4020907 0.07075725
vn -0.02147318 0.9118374 -0.4099898
vn -0.1542404 -0.9097365 -0.385473
vn 0 0 0
vn 0.1479535 0.8784772 -0.4542991
vn -0.7683811 0.6353135 -0.0772485
vn 0.250268 0.9032409 -0.3485999
vn -0.05106459 0.9206507 -0.3870334
vn 0.8250823 -0.5534006 -0.1139607
vn 0.8328431 -0.09310717 0.545622
vn 0.139469 -0.9897208 0.03164151
vn -0.2752476 -0.296113 -0.9146343
vn 0.04448691 0.597371 -0.8007302
vn -4.068641E-07 0.109572 0.9939789
vn 2.64528E-07 0.7432946 -0.6689643
vn 0.03961965 0.6999167 -0.7131249
vn -0.8124865 -0.4333259 0.3899928
vn 0 0 0
vn 0.175456 0.1049831 0.9788737
vn -0.1238862 0.1169153 0.9853847
vn 0 0 0
vn 0 0 0
vn 0.2421973 0.7211646 -0.6490471
vn -0.2901055 0.7233182 -0.6266176
vn 0.2693707 -0.2956557 -0.91653
vn 0 0 0
vn 0.04898136 0.5964245 -0.8011733
vn -0.3391337 0.5067922 -0.7925591
vn -0.7895522 -0.533804 -0.3027552
vn -0.01227462 -0.3632565 -0.9316083
vn 0.8254699 0.564394 0.007683712
vn 0.00547787 0.6050411 -0.7961755
vn -0.9774485 -0.0377764 -0.2077675
vn -0.3626026 0.7536894 -0.548153
vn 0.3474483 0.8053803 -0.4802523
vn -0.003486108 -0.368337 -0.9296858
vn 0.9717042 -0.1248702 -0.2004956
vn -0.001876829 0.5810004 -0.8139011
vn 0.1903449 -0.5959959 -0.7801012
vn 0.2043714 0.885332 0.4176356
vn -0.3013376 -0.6616986 -0.6865498
vn -0.1104832 0.9580218 0.2645519
vn 0.4667723 0.7665337 -0.441078
vn -0.3894135 0.7461219 -0.540055
vn -0.7867908 -0.5815034 0.2069154
vn -2.027074E-06 -0.9576238 0.288022
vn 0.7189044 -0.6731813 0.1732153
vn -2.888254E-06 -0.8320504 -0.5547001
vn 3.265904E-07 0.4572807 -0.8893225
vn 0.6134985 -0.6570664 -0.438045
vn 2.121555E-07 -0.8320484 -0.5547032
vn -0.6774074 -0.6120614 -0.4080441
vn -0.1484815 0.510739 -0.846817
vn 0.2310277 0.5551919 -0.798992
vn 0.8533743 0.2436663 -0.460846
vn -2.29174E-08 0.4472143 -0.8944269
vn -0.8892292 0.1838015 -0.4189134
vn -4.002018E-09 0.9999999 0.0004772696
vn -0.9537459 0.2949767 -0.05794509
vn 1.234088E-06 0.4472122 -0.8944279
vn 1.822996E-06 0.9999999 0.0004755033
vn 0.916801 0.3968007 0.04500113
vn -3.855324E-08 -0.4187549 -0.9080993
vn -0.9445143 -0.04354482 -0.3255711
vn 3.406916E-07 -0.4187547 -0.9080994
vn 0.03130194 0.1104802 -0.9933853
vn 0.05942042 0.1520929 -0.9865785
vn -0.05166852 -0.001436266 -0.9986633
vn 0.06132231 0.2189894 -0.9737984
vn -0.8959249 -0.4353886 -0.08806491
vn -0.7470196 -0.4805497 -0.4593839
vn -0.8829318 -0.4490068 -0.1372025
vn 0.03613886 0.1004845 -0.9942821
vn -0.2409726 0.1353649 -0.9610456
vn -0.2439881 0.09726752 -0.964888
vn -0.2409731 0.1353656 -0.9610453
vn -0.2705803 0.1800058 -0.9457189
vn 0.3165382 -0.1676192 0.9336527
vn 0.3796691 -0.194369 0.9044734
vn -0.2462616 0.06486104 -0.9670306
vn -0.2960523 0.2422322 -0.9239463
vn -0.1685131 -0.04675722 -0.9845898
vn -0.168513 -0.04675717 -0.9845898
vn -0.876582 -0.4559384 -0.1540266
vn -0.05974381 0.1533083 0.9863708
vn -0.5183074 -0.6824956 0.5153224
vn -0.9132411 -0.4074133 0.002286239
vn -0.1462057 0.001866216 0.9892524
vn -0.4429705 -0.4419082 0.7800605
vn -0.07642317 0.5436968 -0.835795
vn 3.213636E-07 0.5649024 -0.8251578
vn 0.9814494 -0.02641505 0.1898929
vn -0.9814494 0.02641505 -0.1898929
vn -0.02271636 -0.4311316 0.902003
vn 0.0650027 0.6161525 -0.7849399
vn 0.8971208 -0.170861 -0.4074075
vn -0.03755999 0.5416908 -0.8397383
vn 0.7020921 0.5141464 -0.4926664
vn -0.7020921 -0.5141464 0.4926664
vn -0.9500622 -0.05582362 -0.3070273
vt 0.1374086 0.07954494
vt 0.1495521 0.08647816
vt 0.1440295 0.08956974
vt -0.1134633 0.1134721
vt -0.1169917 0.1249561
vt -0.1230771 0.1236289
vt 0.1441964 0.06776597
vt 0.1466375 0.0601475
vt 0.1584657 0.05356544
vt 0.04808213 0.1536255
vt 0.04586319 0.1654326
vt 0.04368205 0.1644978
vt -0.1496572 0.07991846
vt -0.1584605 0.05142943
vt -0.1466883 0.05811113
vt -0.1521181 0.04892131
vt -0.1538999 0.06058014
vt -0.1647254 0.05127092
vt -0.1546938 0.04671269
vt -0.185445 0.04182218
vt -0.1724005 0.04123701
vt -0.157537 0.04961941
vt -0.1500832 0.06119301
vt -0.1618475 0.06418009
vt 0.1227681 0.09042142
vt 0.1265481 0.08337079
vt 0.1661375 0.09928189
vt -0.1950182 0.0529964
vt -0.1844829 0.04462934
vt -0.1724834 0.0394804
vt 0.1288733 0.08262356
vt 0.162667 0.1095627
vt 0.1260612 0.0973556
vt 0.01730075 -0.01685368
vt -0.01160453 -0.03185884
vt -0.001133991 -0.04559431
vt 0.04979713 -0.04975558
vt 0.01707209 -0.04770458
vt 0.04118585 -0.06472692
vt -0.1346931 0.06421716
vt -0.1556504 0.04855358
vt -0.1416768 0.04422476
vt 0.1628385 0.1066557
vt 0.1233827 0.09041596
vt 0.1351849 0.07780638
vt 0.01160465 -0.03185863
vt -0.01730064 -0.01685348
vt 0.001134122 -0.0455941
vt 0.06122679 0.06029812
vt 0.08613569 0.0400852
vt 0.08923006 0.05476055
vt -0.0464155 0.04716695
vt -0.01605155 0.05907891
vt -0.05004356 0.06171956
vt 0.01605155 0.05907891
vt 0.0464155 0.04716695
vt 0.05004356 0.06171956
vt 0.07716297 0.128418
vt 0.1085409 0.1374416
vt 0.1032339 0.1697514
vt -0.137007 0.08520156
vt -0.1401906 0.1000107
vt -0.150005 0.0903575
vt -0.1578531 0.07420937
vt -0.1571772 0.06243457
vt -0.1450815 0.06851101
vt -0.01089535 0.1203014
vt -0.02169829 0.1309733
vt -0.04487833 0.1230559
vt -0.1575837 0.05522471
vt -0.1613196 0.06994328
vt -0.1665824 0.05954505
vt 0.04487834 0.1230559
vt 0.0216983 0.1309733
vt 0.01089537 0.1203014
vt 0.1104604 -0.05560171
vt 0.1226339 -0.03413545
vt 0.1154134 -0.02181812
vt -0.1852113 0.05028752
vt -0.1738895 0.03931501
vt -0.1721649 0.04974739
vt -0.1154135 -0.02181802
vt -0.122634 -0.03413535
vt -0.1104605 -0.05560162
vt 0.1524721 0.09297745
vt 0.1425902 0.08242528
vt 0.1636935 0.06106793
vt 0.01609396 0.02845437
vt -0.002548289 0.01228457
vt 0.03245436 0.01019163
vt 0.04699368 0.1594314
vt 0.05700364 0.1700991
vt 0.02230758 0.1751735
vt -0.1132404 0.1123187
vt -0.09854124 0.1261177
vt -0.1092813 0.1357951
vt 0.06932064 -0.03881404
vt 0.05205646 -0.01424914
vt 0.04171345 -0.0315552
vt 0.01795093 0.01455308
vt 0.01022977 0.0364563
vt -0.005116264 0.006312692
vt 0.1549423 0.06317465
vt 0.1338442 0.03655011
vt 0.1840288 0.0397344
vt 0 0
vt 0 0
vt 0 0
vt 0.02154053 0.1748962
vt 0.05625702 0.1699634
vt 0.04141829 0.1855855
vt -0.2043167 0.06909253
vt -0.1894252 0.06978349
vt -0.1820433 0.07427922
vt -0.01609396 0.02845437
vt -0.03245436 0.01019163
vt 0.002548284 0.01228458
vt 0 0
vt 0 0
vt 0 0
vt -0.1222586 0.1343985
vt -0.1063427 0.1348289
vt -0.1092967 0.1428426
vt -0.1181586 0.1668835
vt 0 0
vt 0 0
vt 0 0
vt 0.1364811 0.1175533
vt 0.1495555 0.1646404
vt 0.1426868 0.1511165
vt 0.1392525 0.1443546
vt 0.1358182 0.1375926
vt -0.1193677 0.02099066
vt -0.1168178 0.04407453
vt -0.1348779 0.03101083
vt 0.005116283 0.006312692
vt -0.01022976 0.0364563
vt -0.01795091 0.01455308
vt 0 0
vt 0 0
vt 0 0
vt -0.1339261 -0.04366467
vt -0.1141095 -0.0521228
vt -0.1217323 -0.02881866
vt -0.1058898 0.1098305
vt -0.1175578 0.120434
vt -0.1138183 0.1036332
vt -0.1008044 -0.0530739
vt -0.1121106 -0.06013791
vt -0.1113027 -0.06916358
vt -0.132375 0.03399531
vt -0.1334165 0.02549344
vt -0.1167522 0.02415181
vt 0.1019334 0.146557
vt 0.08979322 0.1509252
vt 0.09003364 0.1445516
vt 0.1635599 0.06019995
vt 0.1704836 0.07901694
vt 0.1524805 0.09215903
vt 0.05271525 0.009625832
vt 0.05004082 -0.01138167
vt 0.07853927 -0.004669398
vt -0.1338442 0.03655011
vt -0.1549423 0.06317465
vt -0.1840288 0.0397344
vt -0.169634 0.0539622
vt -0.1820286 0.05940501
vt -0.1848456 0.04159871
vt 0.1661375 0.09928193
vt 0.156215 0.1177899
vt 0.1227681 0.09042147
vt -0.1831685 0.04271358
vt -0.1846144 0.02176343
vt -0.1711927 0.02083706
vt -0.1767369 0.02464046
vt -0.1754745 0.04262396
vt -0.1877999 0.04699244
vt 0.1724834 0.03948046
vt 0.1844829 0.0446294
vt 0.1950182 0.05299646
vt 0 0
vt 0 0
vt 0 0
vt 0.1656794 0.1011092
vt 0.159251 0.1274531
vt 0.1290229 0.08905524
vt 0.1305868 0.08295418
vt 0.1807576 0.08634956
vt 0.1578311 0.1121902
vt 0 0
vt 0 0
vt 0 0
vt 0 0
vt 0 0
vt 0 0
vt -0.1864139 -0.001028098
vt -0.1900839 -0.03537774
vt -0.1730074 -0.002153301
vt -0.1678662 0.06552435
vt -0.1788483 0.09637047
vt -0.1803868 0.06929725
vt -0.07716297 0.128418
vt -0.1032339 0.1697514
vt -0.1085409 0.1374416
vt 0 0
vt 0 0
vt 0 0
vt -0.1673086 0.06428595
vt -0.1820868 0.05932846
vt -0.1696986 0.05387096
vt -0.166071 0.05422834
vt -0.155189 0.06347147
vt -0.1654271 0.06456854
vt -0.1375755 -0.0496454
vt -0.1432665 -0.04889822
vt -0.1410271 -0.05870905
vt -0.1254732 0.08577463
vt -0.1301772 0.07630462
vt -0.1244545 0.07586127
vt 0.1013914 -0.09639212
vt 0.09499048 -0.1075945
vt 0.1108689 -0.1087674
vt -0.1645376 0.06170449
vt -0.1681269 0.0549899
vt -0.1650152 0.05365931
vt -0.1695471 0.08024652
vt -0.1683094 0.07509424
vt -0.1650509 0.0748975
vt -0.1422972 0.05414907
vt -0.1465693 0.04411827
vt -0.1422962 0.04378885
vt -0.129962 -0.02231449
vt -0.1349712 -0.02319912
vt -0.1289057 -0.03392072
vt -0.1083765 0.1008088
vt -0.1115109 0.1063637
vt -0.1175205 0.09752798
vt 0.09781993 0.1606741
vt 0.09520997 0.1653008
vt 0.09515952 0.1585823
vt -0.1707638 0.04484293
vt -0.1707329 0.03718936
vt -0.1675024 0.04470298
vt -0.07559379 0.08408053
vt -0.07194539 0.09080863
vt -0.07615231 0.09403042
vt 0.04103952 -0.004751262
vt 0.0375057 -0.00843325
vt 0.04135527 -0.01564931
vt -0.09472735 0.03064272
vt -0.09014745 0.0279514
vt -0.08564545 0.03409148
vt -0.02551188 0.04516644
vt -0.02177924 0.03802358
vt -0.01525839 0.03833934
vt -0.1420939 -0.0411431
vt -0.1305099 -0.0445249
vt -0.1255365 -0.04345695
vt -0.1463572 0.04704078
vt -0.1544123 0.04163904
vt -0.1420841 0.04671295
vt -0.01739517 -0.1430375
vt 0.01428843 -0.1514805
vt -0.006824751 -0.1308644
vt 0.1160636 -0.00903186
vt 0.1176174 -0.001184204
vt 0.0884689 0.003415706
vt 0.08691509 -0.004431952
vt 0.1302644 0.08955412
vt 0.105772 0.1102698
vt 0.1010489 0.09370718
vt -0.04076618 0.03787541
vt -0.03451353 0.03428315
vt -0.0305283 0.04121987
vt -0.1465085 0.05424032
vt -0.1443419 0.06194134
vt -0.1500914 0.07595522
vt 0.0184202 0.1342268
vt 0.01133133 0.1208405
vt 0.01745407 0.117031
vt -0.03052853 0.04122056
vt -0.03678118 0.04481281
vt -0.04076641 0.0378761
vt -0.09845781 -0.03350814
vt -0.1036156 -0.02846856
vt -0.1142241 -0.03687625
vt -0.1613861 0.07641198
vt -0.1494545 0.07418545
vt -0.152369 0.09781429
vt -0.1565935 0.0272119
vt -0.1690318 0.03033456
vt -0.1718856 0.005982012
vt -0.05911825 0.1559165
vt -0.06099039 0.1571217
vt -0.06027492 0.1538445
vt -0.1547469 0.0654643
vt -0.1532982 0.05836418
vt -0.1515105 0.0645823
vt -0.1476318 0.09032702
vt -0.1465433 0.08845988
vt -0.1443987 0.08943025
vt -0.04558248 0.004785399
vt -0.04336576 -0.001417251
vt -0.03747588 0.001101212
vt -0.1088886 0.1274759
vt -0.109417 0.1295716
vt -0.1150409 0.1265047
vt -0.1547469 0.06546448
vt -0.1565457 0.05920793
vt -0.1532982 0.05836436
vt -0.04558265 0.004785028
vt -0.03747605 0.001100838
vt -0.03966689 0.007231095
vt 0.1511686 -0.01503787
vt 0.15009 -0.008727887
vt 0.1480199 -0.009547716
vt -0.09639783 0.08217095
vt -0.1066052 0.0879484
vt -0.1099486 0.08240926
vt -0.1506824 0.07206941
vt -0.1527229 0.07089589
vt -0.1448274 0.06184088
vt -0.1099486 0.08240931
vt -0.100532 0.07532196
vt -0.09639783 0.08217099
vt -0.1819794 0.07012895
vt -0.1686793 0.07739122
vt -0.1820433 0.0742792
vt -0.1911873 0.06916331
vt -0.1910114 0.06737412
vt -0.1838575 0.07374347
vt -0.1771502 0.06786229
vt -0.1766647 0.06507157
vt -0.1636933 0.07482982
vt -0.1867041 0.06221462
vt -0.1799046 0.06557598
vt -0.1743303 0.07272045
vt -0.1776379 -0.049812
vt -0.1505546 -0.06048996
vt -0.1727374 -0.05077158
vt -0.1703248 -0.03797128
vt -0.1347137 -0.04332186
vt -0.1661668 -0.03772791
vt -0.1466186 -0.06270345
vt -0.1815313 -0.05387856
vt -0.196365 -0.05536012
vt -0.1812457 0.07510655
vt -0.1885022 0.06885423
vt -0.1812006 0.07095605
vt -0.1700397 0.1139626
vt -0.1803925 0.1250483
vt -0.1678256 0.1027195
vt -0.1626756 0.1083063
vt -0.1647814 0.1133105
vt -0.1656646 0.10262
vt -0.1648633 0.1084197
vt -0.1678257 0.1027195
vt -0.1636367 0.09527656
vt -0.1701218 0.1116609
vt -0.1731803 0.1121865
vt -0.1708799 0.1009608
vt 0.1736097 0.110117
vt 0.1705507 0.1095941
vt 0.1683928 0.1046122
vt 0.1708643 0.1020295
vt 0.168137 0.1022742
vt 0.1656294 0.09654185
vt -0.1555645 0.1024354
vt -0.1579954 0.1082006
vt -0.1595761 0.09486746
vt -0.1697643 0.09189533
vt -0.168494 0.1052617
vt -0.1712211 0.105015
vt -0.1713455 0.08221077
vt -0.2003187 0.05863069
vt -0.1779698 0.0634819
vt -0.1713455 0.08221078
vt -0.1779698 0.06348191
vt -0.1645605 0.06639263
vt -0.1675055 -0.05546049
vt -0.1447926 -0.0638657
vt -0.1650504 -0.05391541
vt 0.1591121 0.07887308
vt 0.1541336 0.07848542
vt 0.1587755 0.07606051
vt 0.1625932 -0.06243003
vt 0.1601172 -0.06091863
vt 0.1638732 -0.06750834
vt -0.1884901 -0.0366436
vt -0.1593404 -0.04971589
vt -0.1851054 -0.03616275
vt 0.1763375 0.08473822
vt 0.1721767 0.08492983
vt 0.1763089 0.08294062
vt 0.1954123 0.04354514
vt 0.1920025 0.04379125
vt 0.1988619 0.0405233
vt -0.1862618 0.05376133
vt -0.1554489 0.05824675
vt -0.1648728 0.06153814
vt -0.1668164 0.04780757
vt -0.1565948 0.04656558
vt -0.155236 0.05301075
vt 0.1583941 0.09227274
vt 0.1482363 0.09058677
vt 0.1906861 0.09422595
vt -0.1906861 0.09422595
vt -0.1482363 0.09058677
vt -0.1583941 0.09227274
vt 0.1583876 0.04964858
vt 0.149873 0.07822525
vt 0.1443811 0.06410842
vt -0.183913 0.0373838
vt -0.1627979 0.04587621
vt -0.1688668 0.04994807
vt 0.03248619 0.1857471
vt 0.02809901 0.1799021
vt 0.03460591 0.1793715
vt -0.1735993 0.05196585
vt -0.1674172 0.05199407
vt -0.1557847 0.05707977
vt -0.1732313 -0.009452691
vt -0.1670499 -0.009353822
vt -0.1990235 -0.00442638
vt 0.1990235 -0.00442638
vt 0.1670499 -0.009353822
vt 0.1732313 -0.009452691
vt -0.1688043 0.06198371
vt -0.1675857 0.06693952
vt -0.1737678 0.06690215
o group1924176791
g mesh1924176791
usemtl mat18
f 3/3/1 2/2/1 1/1/1
f 6/6/2 5/5/2 4/4/2
f 8/12/4 3/11/4 1/10/4
f 2/63/21 9/62/21 1/61/21
f 4/66/22 7/65/22 6/64/22
f 49/264/87 15/263/87 7/262/87
f 49/268/88 50/267/88 14/266/88 15/265/88
f 50/271/89 9/270/89 14/269/89
f 50/274/90 49/273/90 4/272/90
f 50/280/92 1/279/92 9/278/92
f 4/283/93 1/282/93 50/281/93
f 7/286/94 4/285/94 49/284/94
f 52/319/105 8/318/105 1/317/105
f 4/322/106 5/321/106 52/320/106
f 1/325/107 4/324/107 52/323/107
usemtl mat21
f 7/9/3 4/8/3 1/7/3
f 4/15/5 7/14/5 9/13/5
f 12/30/10 11/29/10 16/28/10
f 19/36/12 15/35/12 6/34/12
f 22/48/16 6/47/16 15/46/16
f 23/54/18 2/53/18 14/52/18
f 18/57/19 14/56/19 2/55/19
f 25/60/20 24/59/20 18/58/20
f 23/69/23 13/68/23 2/67/23
f 2/75/25 13/74/25 18/73/25
f 6/78/26 10/77/26 19/76/26
f 22/84/28 10/83/28 6/82/28
f 20/90/30 19/89/30 10/88/30
f 23/102/34 28/101/34 13/100/34
f 30/105/35 22/104/35 11/103/35
f 19/108/36 10/107/36 22/106/36
f 30/120/40 19/119/40 22/118/40
f 23/127/42 18/126/42 13/125/42
f 13/138/45 28/137/45 23/136/45
f 18/141/46 23/140/46 25/139/46
f 30/165/54 11/164/54 22/163/54
f 16/180/59 11/179/59 12/178/59
f 23/183/60 18/182/60 24/181/60
f 16/195/64 19/194/64 22/193/64
f 18/207/68 23/206/68 17/205/68
f 9/277/91 1/276/91 4/275/91
f 16/406/134 6/405/134 43/404/134
f 43/409/135 6/408/135 16/407/135
f 1/412/136 9/411/136 7/410/136
f 16/424/140 43/423/140 12/422/140
f 12/427/141 43/426/141 16/425/141
usemtl mat13
f 10/18/6 6/17/6 7/16/6
f 12/21/7 11/20/7 2/19/7
f 13/24/8 9/23/8 2/22/8
f 16/27/9 15/26/9 14/25/9
f 18/33/11 17/32/11 14/31/11
f 19/39/13 7/38/13 15/37/13
f 21/42/14 20/41/14 7/40/14
f 22/45/15 15/44/15 16/43/15
f 23/51/17 14/50/17 9/49/17
f 26/72/24 13/71/24 2/70/24
f 12/81/27 27/80/27 11/79/27
f 23/87/29 29/86/29 28/85/29
f 19/93/31 20/92/31 21/91/31
f 28/96/32 29/95/32 9/94/32
f 9/99/33 29/98/33 23/97/33
f 31/111/37 20/110/37 19/109/37
f 19/117/39 20/116/39 10/115/39
f 38/132/43 37/131/43 36/130/43 25/129/43 23/128/43
f 38/135/44 28/134/44 13/133/44
f 10/144/47 20/143/47 31/142/47
f 39/147/48 11/146/48 27/145/48
f 31/150/49 39/149/49 10/148/49
f 13/153/50 34/152/50 38/151/50
f 41/156/51 40/155/51 34/154/51
f 28/159/52 38/158/52 23/157/52
f 19/162/53 21/161/53 7/160/53
f 11/168/55 24/167/55 42/166/55
f 14/171/56 17/170/56 16/169/56
f 11/174/57 16/173/57 17/172/57
f 17/177/58 24/176/58 11/175/58
f 23/186/61 25/185/61 17/184/61
f 16/189/62 30/188/62 19/187/62
f 22/192/63 19/191/63 30/190/63
f 11/198/65 30/197/65 16/196/65
f 17/201/66 25/200/66 24/199/66
f 42/210/69 24/209/69 40/208/69
f 43/213/70 6/212/70 10/211/70
f 39/216/71 27/215/71 44/214/71
f 44/219/72 27/218/72 12/217/72
f 24/222/73 34/221/73 40/220/73
f 48/228/75 47/227/75 12/226/75
f 10/231/76 44/230/76 43/229/76
f 26/234/77 41/233/77 13/232/77
f 42/237/78 40/236/78 41/235/78
f 46/240/79 42/239/79 45/238/79
f 12/246/81 47/245/81 44/244/81
f 44/249/82 48/248/82 43/247/82
f 41/252/83 45/251/83 42/250/83
f 26/255/84 46/254/84 41/253/84
f 13/258/85 41/257/85 34/256/85
f 10/261/86 39/260/86 44/259/86
f 28/289/95 9/288/95 13/287/95
f 20/292/96 10/291/96 7/290/96
f 57/340/112 19/339/112 54/338/112
f 58/343/113 19/342/113 32/341/113
f 30/346/114 32/345/114 19/344/114
f 37/364/120 59/363/120 36/362/120
f 38/367/121 60/366/121 37/365/121
f 31/382/126 19/381/126 57/380/126
f 56/385/127 57/384/127 54/383/127
f 56/388/128 31/387/128 57/386/128
f 54/391/129 19/390/129 58/389/129
f 55/394/130 58/393/130 32/392/130
f 55/397/131 54/396/131 58/395/131
f 26/400/132 2/399/132 11/398/132
f 2/403/133 6/402/133 43/401/133
f 42/415/137 26/414/137 11/413/137
f 46/418/138 26/417/138 42/416/138
f 2/421/139 43/420/139 12/419/139
f 12/430/142 43/429/142 48/428/142
usemtl mat20
f 33/114/38 32/113/38 30/112/38
f 25/124/41 35/123/41 34/122/41 24/121/41
f 24/204/67 25/203/67 23/202/67
f 33/328/108 39/327/108 54/326/108
f 33/331/109 55/330/109 32/329/109
f 39/334/110 56/333/110 54/332/110
f 39/337/111 31/336/111 56/335/111
f 54/349/115 55/348/115 33/347/115
f 35/352/116 25/351/116 36/350/116
f 35/355/117 59/354/117 37/353/117
f 34/358/118 35/357/118 37/356/118
f 35/361/119 36/360/119 59/359/119
f 34/370/122 60/369/122 38/368/122
f 37/373/123 60/372/123 34/371/123
f 33/376/124 30/375/124 11/374/124
f 39/379/125 33/378/125 11/377/125
usemtl mat23
f 46/225/74 45/224/74 41/223/74
f 48/243/80 44/242/80 47/241/80
f 8/295/97 51/294/97 3/293/97
f 8/298/98 52/297/98 51/296/98
f 52/301/99 5/300/99 53/299/99
f 53/304/100 6/303/100 2/302/100
f 6/307/101 53/306/101 5/305/101
f 52/310/102 53/309/102 51/308/102
f 51/313/103 53/312/103 2/311/103
f 3/316/104 51/315/104 2/314/104
